<svg width="252px" height="180px" viewBox="0 0 252 180" version="1.1" xmlns="http://www.w3.org/2000/svg" xmlns:xlink="http://www.w3.org/1999/xlink">
    <g id="Page-1" stroke="none" stroke-width="1" fill="none" fill-rule="evenodd">
        <g id="Logo_4D-eps" fill="#005493">
            <path d="M229.491,28.923 C204.221,2.493 165.504,2.493 136.525,2.493 C127.423,2.493 119.589,2.945 119.027,3.011 C112.789,3.736 113.346,0.842 109.435,0.654 C106.898,0.533 105.267,1.579 101.574,5.835 C99.63,8.078 5.448,121.08 3.825,122.935 C2.898,124.094 0.811,126.181 0.811,128.962 C0.811,131.513 3.825,132.44 6.608,132.44 L78.563,132.44 L78.563,114.357 L25.386,114.357 C33.268,103.924 80.571,49.443 85.904,42.72 L85.904,132.469 C85.904,132.469 85.969,147.925 85.199,160.492 C84.759,167.68 83.113,171.32 74.303,172.247 C70.594,172.71 65.493,172.943 63.406,172.943 C62.248,172.943 61.552,174.368 61.552,175.991 C61.552,177.614 62.711,178.807 65.261,178.807 C78.012,178.807 90.531,178.111 97.023,178.111 C117.371,178.111 140.206,179.847 149.044,179.847 C191.934,179.847 216.044,163.387 226.709,152.491 C239.691,139.276 251.978,117.02 251.978,87.808 C251.978,60.22 241.082,40.978 229.491,28.923 Z M201.439,152.259 C187.528,164.314 171.764,168.951 148.116,168.951 C129.802,168.951 120.578,164.083 117.564,159.678 C115.709,157.127 114.698,147.854 114.466,142.058 C114.384,140.481 114.295,137.167 114.223,132.454 L130.871,132.44 C134.812,132.44 135.971,131.513 137.13,129.426 C138.753,126.412 141.072,116.907 141.072,114.821 C141.072,112.966 140.144,112.039 138.985,112.039 C137.594,112.039 134.58,114.357 128.321,114.357 L114.055,114.357 L114.067,80.266 L114.068,80.266 L114.089,19.649 C114.089,17.099 114.93,15.939 117.016,15.012 C118.871,14.085 128.179,13.389 132.816,13.389 C150.899,13.389 177.327,16.171 198.657,36.573 C208.626,46.078 220.912,65.089 220.912,94.532 C220.912,118.411 216.277,139.507 201.439,152.259 L201.439,152.259 Z" id="Fill-1"></path>
        </g>
    </g>
</svg>