
<svg width="113px" height="113px" viewBox="0 0 113 113" version="1.1" xmlns="http://www.w3.org/2000/svg" xmlns:xlink="http://www.w3.org/1999/xlink">
    <g id="Page-1" stroke="none" stroke-width="1" fill="none" fill-rule="evenodd">
        <g id="logo_ajar" transform="translate(-1.000000, -1.000000)" fill="#005C9C">
            <path d="M87.1643298,31.323801 L83.6759317,31.323801 L83.6759317,28.9268555 C83.6759317,10.4593211 71.1244701,1 57.5004979,1 C42.6825236,1 31.3240683,9.56308053 31.3240683,27.8354337 L31.3240683,31.323801 L28.9261058,31.323801 C10.4594044,31.323801 1,43.875152 1,57.4990042 C1,72.3168479 9.56315599,83.676199 27.8356702,83.676199 L31.3240683,83.676199 L31.3240683,86.0731445 C31.3240683,104.540679 43.8755299,114 57.4995021,114 C72.3174764,114 83.6759317,105.435924 83.6759317,87.1645663 L83.6759317,83.676199 L86.0738942,83.676199 C104.540596,83.676199 114,71.124848 114,57.5009958 C114,42.6831521 105.436844,31.323801 87.1643298,31.323801 Z M31.3240683,71.8916316 L28.5208023,71.8916316 C18.0097997,71.8916316 13.7446529,65.936611 13.7446529,57.5 C13.7446529,49.063389 18.0097997,43.1083684 28.5208023,43.1083684 L31.3240683,43.1083684 L31.3240683,71.8916316 Z M71.8922563,86.4784444 C71.8922563,96.9903502 65.9361875,101.254464 57.4995021,101.254464 C49.0628167,101.254464 43.1077437,96.9903502 43.1077437,86.4784444 L43.1077437,28.5215556 C43.1077437,18.0096498 49.0638125,13.7455364 57.5004979,13.7455364 C65.9371833,13.7455364 71.8922563,18.0096498 71.8922563,28.5215556 L71.8922563,86.4784444 Z M86.4782019,71.8916316 L83.6759317,71.8916316 L83.6759317,43.1083684 L86.4782019,43.1083684 C96.9902003,43.1083684 101.255347,49.063389 101.255347,57.5 C101.255347,65.936611 96.9902003,71.8916316 86.4782019,71.8916316 L86.4782019,71.8916316 Z" id="Fill-23"></path>
            <polygon id="Fill-24" points="46 43 69 43 69 31 46 31"></polygon>
            <polygon id="Fill-25" points="46 84 69 84 69 72 46 72"></polygon>
        </g>
    </g>
</svg>